# xmcd
#
# Track frame offsets:
#	150
#	15705
#	28745
#	43681
#	66752
#	84259
#	98827
#	113544
#	131082
#	148448
#
# Disc length: 2275 seconds
#
# Revision: 0
# Processed by: cddbd v1.5.2PL0 Copyright (c) Steve Scherf et al.
# Submitted via: EasyCDDAExtractor 15.2.1.1
#
DISCID=8508e10a
DTITLE=eysuhl™ Sahara Hotnights - Sahara Hotnights [2011 UniversalSweden 69523
DTITLE=] Sahara Hotnights
DYEAR=2011
DGENRE=Sweden
TTITLE0=Let You Down
TTITLE1=Oh's
TTITLE2=Vulture Feet
TTITLE3=Little Love Sorrow
TTITLE4=Wanted You,Want Is Gone
TTITLE5=Lookalike
TTITLE6=781
TTITLE7=Secrets
TTITLE8=You Anymore
TTITLE9=Distant And Dreamy
EXTD=
EXTT0=
EXTT1=
EXTT2=
EXTT3=
EXTT4=
EXTT5=
EXTT6=
EXTT7=
EXTT8=
EXTT9=
PLAYORDER=
